<?xml version="1.0" encoding="UTF-8"?>
<!-- Generator: Adobe Illustrator 17.1.0, SVG Export Plug-In . SVG Version: 6.00 Build 0)  -->
<svg width="24" height="24" enable-background="new 0 0 350 118" version="1.1" viewBox="0 0 24 24" xml:space="preserve" xmlns="http://www.w3.org/2000/svg">







<path d="m12 7.0167c-1.3839 0-2.567 0.49052-3.5491 1.4716-0.98214 0.98105-1.4732 2.1628-1.4732 3.5452 0 1.3824 0.49107 2.5641 1.4732 3.5452 0.98214 0.98105 2.1652 1.4716 3.5491 1.4716 1.3839 0 2.567-0.49053 3.5491-1.4716 0.98214-0.98105 1.4732-2.1628 1.4732-3.5452 0-1.3824-0.49107-2.5641-1.4732-3.5452-0.98214-1.0033-2.1652-1.4716-3.5491-1.4716zm1.7634 6.7559c-0.49107 0.49052-1.0714 0.73579-1.7634 0.73579s-1.2723-0.24526-1.7634-0.73579c-0.49107-0.49052-0.73661-1.0702-0.73661-1.7614s0.24554-1.2709 0.73661-1.7614c0.49107-0.49052 1.0714-0.73579 1.7634-0.73579 0.69197 0 1.2723 0.24526 1.7634 0.73579 0.49107 0.49052 0.73661 1.0702 0.73661 1.7614 0 0.69119-0.24552 1.2709-0.73661 1.7614zm-1.7634-11.773c-2.7679 0-5.1116 0.98105-7.0759 2.9431-1.9643 1.9398-2.9241 4.3032-2.9241 7.068 0 2.7648 0.98214 5.1059 2.9241 7.068 1.9643 1.9621 4.308 2.9208 7.0759 2.9208 2.7679 0 5.1116-0.98105 7.0759-2.9208 1.942-1.9621 2.9241-4.3255 2.9241-7.068 0-2.7648-0.98214-5.1059-2.9241-7.068-1.942-1.9621-4.3304-2.9431-7.0759-2.9431zm5.3125 15.295c-1.4732 1.4716-3.2366 2.1851-5.3125 2.1851-2.0759 0-3.8393-0.71349-5.3125-2.1851-1.4732-1.4716-2.1875-3.233-2.1875-5.3066 0-2.0736 0.73661-3.835 2.1875-5.3066 1.4732-1.4716 3.2366-2.1851 5.3125-2.1851 2.0759 0 3.8393 0.73579 5.3125 2.1851 1.4732 1.4716 2.1875 3.233 2.1875 5.3066 0 2.0736-0.73661 3.8573-2.1875 5.3066z" fill="#80cc28"/>

</svg>
