<?xml version="1.0" encoding="UTF-8"?>
<svg width="24px" height="24px" fill="#e8eaed" version="1.1" viewBox="0 -960 960 960" xmlns="http://www.w3.org/2000/svg">
 <path d="m480-720c-66.667 0-123.33 23.333-170 70-36.576 36.576-54.513 81.138-62.422 130h-167.58v80h167.58c7.9087 48.862 25.846 93.424 62.422 130 46.667 46.667 103.33 70 170 70 60 0 112.15-19.031 156.48-57.031 44.333-38 71.214-85.635 80.547-142.97h162.97v-80h-162.97c-9.3333-57.333-36.214-104.97-80.547-142.97-44.333-38-96.484-57.031-156.48-57.031zm0 80c44 0 81.635 15.698 112.97 47.031s47.031 68.969 47.031 112.97-15.698 81.635-47.031 112.97-68.969 47.031-112.97 47.031-81.635-15.698-112.97-47.031-47.031-68.969-47.031-112.97 15.698-81.635 47.031-112.97 68.969-47.031 112.97-47.031z"/>
 <rect x="560" y="-520" width="320" height="80" fill="none" stop-color="#000000" stroke-linecap="square" stroke-width="37.8"/>
 <rect x="80" y="-520" width="200" height="80" fill="none" stop-color="#000000" stroke-linecap="square" stroke-width="37.8"/>
</svg>
